<svg width="109" height="18" viewBox="0 0 109 18" fill="none" xmlns="http://www.w3.org/2000/svg">
<path d="M4.592 3.44V6.848H10.088V10.016H4.592V13.712H10.808V17H0.488V0.151999H10.808V3.44H4.592ZM19.4964 13.16L22.4004 3.608H26.7684L22.0164 17H16.9524L12.2004 3.608H16.5924L19.4964 13.16ZM41.1198 10.088C41.1198 10.472 41.0958 10.872 41.0478 11.288H31.7598C31.8238 12.12 32.0878 12.76 32.5518 13.208C33.0318 13.64 33.6158 13.856 34.3038 13.856C35.3278 13.856 36.0398 13.424 36.4398 12.56H40.8078C40.5838 13.44 40.1758 14.232 39.5838 14.936C39.0078 15.64 38.2798 16.192 37.3998 16.592C36.5198 16.992 35.5358 17.192 34.4478 17.192C33.1358 17.192 31.9678 16.912 30.9438 16.352C29.9198 15.792 29.1198 14.992 28.5438 13.952C27.9678 12.912 27.6798 11.696 27.6798 10.304C27.6798 8.912 27.9598 7.696 28.5198 6.656C29.0958 5.616 29.8958 4.816 30.9198 4.256C31.9438 3.696 33.1198 3.416 34.4478 3.416C35.7438 3.416 36.8958 3.688 37.9038 4.232C38.9118 4.776 39.6958 5.552 40.2558 6.56C40.8318 7.568 41.1198 8.744 41.1198 10.088ZM36.9198 9.008C36.9198 8.304 36.6798 7.744 36.1998 7.328C35.7198 6.912 35.1198 6.704 34.3998 6.704C33.7118 6.704 33.1278 6.904 32.6478 7.304C32.1838 7.704 31.8958 8.272 31.7838 9.008H36.9198ZM51.4449 3.464C53.0129 3.464 54.2609 3.976 55.1889 5C56.1329 6.008 56.6049 7.4 56.6049 9.176V17H52.5249V9.728C52.5249 8.832 52.2929 8.136 51.8289 7.64C51.3649 7.144 50.7409 6.896 49.9569 6.896C49.1729 6.896 48.5489 7.144 48.0849 7.64C47.6209 8.136 47.3889 8.832 47.3889 9.728V17H43.2849V3.608H47.3889V5.384C47.8049 4.792 48.3649 4.328 49.0689 3.992C49.7729 3.64 50.5649 3.464 51.4449 3.464ZM66.9208 13.52V17H64.8328C63.3448 17 62.1848 16.64 61.3528 15.92C60.5208 15.184 60.1048 13.992 60.1048 12.344V7.016H58.4728V3.608H60.1048V0.344H64.2088V3.608H66.8968V7.016H64.2088V12.392C64.2088 12.792 64.3048 13.08 64.4968 13.256C64.6888 13.432 65.0088 13.52 65.4568 13.52H66.9208ZM82.4308 3.608V17H78.3268V15.176C77.9108 15.768 77.3428 16.248 76.6228 16.616C75.9188 16.968 75.1348 17.144 74.2708 17.144C73.2468 17.144 72.3428 16.92 71.5588 16.472C70.7748 16.008 70.1668 15.344 69.7348 14.48C69.3028 13.616 69.0868 12.6 69.0868 11.432V3.608H73.1668V10.88C73.1668 11.776 73.3988 12.472 73.8628 12.968C74.3268 13.464 74.9508 13.712 75.7348 13.712C76.5348 13.712 77.1668 13.464 77.6308 12.968C78.0948 12.472 78.3268 11.776 78.3268 10.88V3.608H82.4308ZM89.4826 5.84C89.9626 5.104 90.5626 4.528 91.2826 4.112C92.0026 3.68 92.8026 3.464 93.6826 3.464V7.808H92.5546C91.5306 7.808 90.7626 8.032 90.2506 8.48C89.7386 8.912 89.4826 9.68 89.4826 10.784V17H85.3786V3.608H89.4826V5.84ZM108.268 10.088C108.268 10.472 108.244 10.872 108.196 11.288H98.9083C98.9723 12.12 99.2363 12.76 99.7003 13.208C100.18 13.64 100.764 13.856 101.452 13.856C102.476 13.856 103.188 13.424 103.588 12.56H107.956C107.732 13.44 107.324 14.232 106.732 14.936C106.156 15.64 105.428 16.192 104.548 16.592C103.668 16.992 102.684 17.192 101.596 17.192C100.284 17.192 99.1163 16.912 98.0923 16.352C97.0683 15.792 96.2683 14.992 95.6923 13.952C95.1163 12.912 94.8283 11.696 94.8283 10.304C94.8283 8.912 95.1083 7.696 95.6683 6.656C96.2443 5.616 97.0443 4.816 98.0683 4.256C99.0923 3.696 100.268 3.416 101.596 3.416C102.892 3.416 104.044 3.688 105.052 4.232C106.06 4.776 106.844 5.552 107.404 6.56C107.98 7.568 108.268 8.744 108.268 10.088ZM104.068 9.008C104.068 8.304 103.828 7.744 103.348 7.328C102.868 6.912 102.268 6.704 101.548 6.704C100.86 6.704 100.276 6.904 99.7963 7.304C99.3323 7.704 99.0443 8.272 98.9323 9.008H104.068Z" fill="#6366F1"/>
</svg>
